<svg version="1.1" preserveAspectRatio="none" xmlns="http://www.w3.org/2000/svg" width="500" height="500" viewBox="0 0 500 500"><rect width="100%" height="100%" fill="#0C2A43" fill-opacity="1"/><svg viewBox="-104.0922 90.3966 582.1096 40" width="333" height="22.882288833580482" x="83.5px" y="238.5589px" xmlns="http://www.w3.org/2000/svg" xmlns:xlink="http://www.w3.org/1999/xlink" preserveAspectRatio="none"><defs></defs><style>.companyName {fill:#F3F0ED;fill-opacity:1;}.icon3 {fill:#ED4545;fill-opacity:1;}.icon3-str {stroke:#ED4545;stroke-opacity:1;}</style><g opacity="1" transform="rotate(0 -104.0922 90.3966)">
<svg width="349.3096" height="40" x="-104.0922" y="90.3966" version="1.1" preserveAspectRatio="none" viewBox="-0.36 -28 244.52 28">
  <g transform="matrix(1 0 0 1 0 0)" class="companyName"><path id="id-D6z1nYkh8" d="M24.24 0L21.76-6L8.76-6L6.28 0L-0.36 0L12.12-28L18.52-28L31.04 0L24.24 0ZM10.84-10.92L19.72-10.92L15.28-21.64L10.84-10.92Z M65.52 0L59.44 0L59.40-16.80L51.16-2.96L48.24-2.96L40.04-16.44L40.04 0L33.96 0L33.96-28L39.32-28L49.80-10.60L60.12-28L65.44-28L65.52 0Z M93.08 0L90.60-6L77.60-6L75.12 0L68.48 0L80.96-28L87.36-28L99.88 0L93.08 0ZM79.68-10.92L88.56-10.92L84.12-21.64L79.68-10.92Z M127.60 0L120.64 0L115.24-7.80L114.92-7.80L109.28-7.80L109.28 0L102.80 0L102.80-28L114.92-28Q118.64-28 121.38-26.76Q124.12-25.52 125.60-23.24Q127.08-20.96 127.08-17.84L127.08-17.84Q127.08-14.72 125.58-12.46Q124.08-10.20 121.32-9L121.32-9L127.60 0ZM120.52-17.84Q120.52-20.20 119-21.46Q117.48-22.72 114.56-22.72L114.56-22.72L109.28-22.72L109.28-12.96L114.56-12.96Q117.48-12.96 119-14.24Q120.52-15.52 120.52-17.84L120.52-17.84Z M151.48-28L157.88-28L157.88 0L152.56 0L138.60-17L138.60 0L132.20 0L132.20-28L137.56-28L151.48-11L151.48-28Z M185.44 0L182.96-6L169.96-6L167.48 0L160.84 0L173.32-28L179.72-28L192.24 0L185.44 0ZM172.04-10.92L180.92-10.92L176.48-21.64L172.04-10.92Z M199.56 0L199.56-22.72L190.60-22.72L190.60-28L215.00-28L215.00-22.72L206.04-22.72L206.04 0L199.56 0Z M237.68-28L244.16-28L244.16 0L237.68 0L237.68-11.48L224.96-11.48L224.96 0L218.48 0L218.48-28L224.96-28L224.96-16.96L237.68-16.96L237.68-28Z"/></g>
</svg>
</g><g opacity="1" transform="rotate(0 265.2174 90.3966)">
<svg width="212.8" height="40" x="265.2174" y="90.3966" version="1.1" preserveAspectRatio="none" viewBox="3.32 -28 148.96 28">
  <g transform="matrix(1 0 0 1 0 0)" class="icon3"><path id="id--VpF9B9iX6" d="M15.44-28Q19.16-28 21.90-26.76Q24.64-25.52 26.12-23.24Q27.60-20.96 27.60-17.84L27.60-17.84Q27.60-14.76 26.12-12.46Q24.64-10.16 21.90-8.94Q19.16-7.72 15.44-7.72L15.44-7.72L9.80-7.72L9.80 0L3.32 0L3.32-28L15.44-28ZM15.08-13Q18-13 19.52-14.26Q21.04-15.52 21.04-17.84L21.04-17.84Q21.04-20.20 19.52-21.46Q18-22.72 15.08-22.72L15.08-22.72L9.80-22.72L9.80-13L15.08-13Z M51.72 0L49.24-6L36.24-6L33.76 0L27.12 0L39.60-28L46-28L58.52 0L51.72 0ZM38.32-10.92L47.20-10.92L42.76-21.64L38.32-10.92Z M93 0L86.92 0L86.88-16.80L78.64-2.96L75.72-2.96L67.52-16.44L67.52 0L61.44 0L61.44-28L66.80-28L77.28-10.60L87.60-28L92.92-28L93 0Z M99.64 0L99.64-28L106.12-28L106.12 0L99.64 0Z M112.76 0L112.76-28L125.48-28Q130.04-28 133.54-26.26Q137.04-24.52 138.98-21.36Q140.92-18.20 140.92-14L140.92-14Q140.92-9.80 138.98-6.64Q137.04-3.48 133.54-1.74Q130.04 0 125.48 0L125.48 0L112.76 0ZM119.24-5.32L125.16-5.32Q129.36-5.32 131.86-7.66Q134.36-10 134.36-14L134.36-14Q134.36-18 131.86-20.34Q129.36-22.68 125.16-22.68L125.16-22.68L119.24-22.68L119.24-5.32Z M145.80 0L145.80-28L152.28-28L152.28 0L145.80 0Z"/></g>
</svg>
</g></svg></svg>